<svg width="24" height="24" viewBox="0 0 24 24" fill="none" xmlns="http://www.w3.org/2000/svg">
<path d="M12 2C7.51 2 4 4.2 4 7V17C4 19.8 7.51 22 12 22C16.49 22 20 19.8 20 17V7C20 4.2 16.49 2 12 2ZM12 20C8.46 20 6 18.42 6 17V10.33C7.7856 11.4795 9.87729 12.0617 12 12C14.1227 12.0617 16.2144 11.4795 18 10.33V17C18 18.42 15.54 20 12 20ZM12 10C8.46 10 6 8.42 6 7C6 5.58 8.46 4 12 4C15.54 4 18 5.58 18 7C18 8.42 15.54 10 12 10Z" fill="#B7BEBF" stroke="white" stroke-width="0.8"/>
<path d="M12 8.70999C13.6569 8.70999 15 7.9444 15 6.99999C15 6.05559 13.6569 5.28999 12 5.28999C10.3431 5.28999 9 6.05559 9 6.99999C9 7.9444 10.3431 8.70999 12 8.70999Z" fill="#B7BEBF"/>
</svg>
