<svg width="24" height="24" viewBox="0 0 24 24" fill="none" xmlns="http://www.w3.org/2000/svg">
<mask id="path-1-inside-1_91_2271" fill="white">
<path d="M15 22.5H12.75C12.3523 22.4996 11.971 22.3414 11.6898 22.0602C11.4086 21.779 11.2504 21.3977 11.25 21V17.25H12.75V21H15V17.25H16.5V14.25C16.4998 14.0512 16.4207 13.8605 16.2801 13.7199C16.1395 13.5793 15.9489 13.5002 15.75 13.5H9.21L7.71 9H3C2.80115 9.0002 2.6105 9.07928 2.46989 9.21989C2.32928 9.3605 2.2502 9.55115 2.25 9.75V14.25H3.75V21H6.75V15.75H8.25V21C8.2496 21.3977 8.09144 21.779 7.81022 22.0602C7.529 22.3414 7.1477 22.4996 6.75 22.5H3.75C3.3523 22.4996 2.971 22.3414 2.68978 22.0602C2.40856 21.779 2.2504 21.3977 2.25 21V15.75C1.8523 15.7496 1.471 15.5914 1.18978 15.3102C0.90856 15.029 0.750397 14.6477 0.75 14.25V9.75C0.750596 9.15345 0.98784 8.5815 1.40967 8.15967C1.8315 7.73784 2.40345 7.5006 3 7.5H7.71C8.02478 7.4998 8.33163 7.59874 8.58701 7.78277C8.84239 7.9668 9.03334 8.22658 9.13275 8.52525L10.29 12H15.75C16.3466 12.0006 16.9185 12.2378 17.3403 12.6597C17.7622 13.0815 17.9994 13.6534 18 14.25V17.25C17.9996 17.6477 17.8414 18.029 17.5602 18.3102C17.279 18.5914 16.8977 18.7496 16.5 18.75V21C16.4996 21.3977 16.3414 21.779 16.0602 22.0602C15.779 22.3414 15.3977 22.4996 15 22.5ZM21 22.5H19.5V14.25H21.75V9.75C21.7498 9.55115 21.6707 9.3605 21.5301 9.21989C21.3895 9.07928 21.1989 9.0002 21 9H18V7.5H21C21.5966 7.5006 22.1685 7.73784 22.5903 8.15967C23.0122 8.5815 23.2494 9.15345 23.25 9.75V14.25C23.2496 14.6477 23.0914 15.029 22.8102 15.3102C22.529 15.5914 22.1477 15.7496 21.75 15.75H21V22.5ZM5.25 6.75C4.65666 6.75 4.07664 6.57405 3.58329 6.24441C3.08994 5.91477 2.70542 5.44623 2.47836 4.89805C2.2513 4.34987 2.19189 3.74667 2.30764 3.16473C2.4234 2.58279 2.70912 2.04824 3.12868 1.62868C3.54824 1.20912 4.08279 0.923401 4.66473 0.807646C5.24667 0.69189 5.84987 0.7513 6.39805 0.978363C6.94623 1.20543 7.41476 1.58994 7.74441 2.08329C8.07405 2.57664 8.25 3.15666 8.25 3.75C8.24901 4.54535 7.93262 5.30783 7.37022 5.87023C6.80783 6.43262 6.04534 6.74901 5.25 6.75ZM5.25 2.25C4.95333 2.25 4.66332 2.33797 4.41664 2.5028C4.16997 2.66762 3.97771 2.90189 3.86418 3.17598C3.75065 3.45007 3.72094 3.75167 3.77882 4.04264C3.8367 4.33361 3.97956 4.60088 4.18934 4.81066C4.39912 5.02044 4.66639 5.1633 4.95736 5.22118C5.24834 5.27906 5.54994 5.24935 5.82403 5.13582C6.09811 5.02229 6.33238 4.83003 6.4972 4.58336C6.66203 4.33668 6.75 4.04667 6.75 3.75C6.7496 3.3523 6.59144 2.971 6.31022 2.68978C6.029 2.40856 5.6477 2.2504 5.25 2.25ZM18.75 6.75C18.1567 6.75 17.5766 6.57405 17.0833 6.24441C16.5899 5.91477 16.2054 5.44623 15.9784 4.89805C15.7513 4.34987 15.6919 3.74667 15.8076 3.16473C15.9234 2.58279 16.2091 2.04824 16.6287 1.62868C17.0482 1.20912 17.5828 0.923401 18.1647 0.807646C18.7467 0.69189 19.3499 0.7513 19.8981 0.978363C20.4462 1.20543 20.9148 1.58994 21.2444 2.08329C21.5741 2.57664 21.75 3.15666 21.75 3.75C21.749 4.54535 21.4326 5.30783 20.8702 5.87023C20.3078 6.43262 19.5453 6.74901 18.75 6.75ZM18.75 2.25C18.4533 2.25 18.1633 2.33797 17.9166 2.5028C17.67 2.66762 17.4777 2.90189 17.3642 3.17598C17.2506 3.45007 17.2209 3.75167 17.2788 4.04264C17.3367 4.33361 17.4796 4.60088 17.6893 4.81066C17.8991 5.02044 18.1664 5.1633 18.4574 5.22118C18.7483 5.27906 19.0499 5.24935 19.324 5.13582C19.5981 5.02229 19.8324 4.83003 19.9972 4.58336C20.162 4.33668 20.25 4.04667 20.25 3.75C20.2496 3.3523 20.0914 2.971 19.8102 2.68978C19.529 2.40856 19.1477 2.2504 18.75 2.25Z"/>
</mask>
<path d="M15 22.5H12.75C12.3523 22.4996 11.971 22.3414 11.6898 22.0602C11.4086 21.779 11.2504 21.3977 11.25 21V17.25H12.75V21H15V17.25H16.5V14.25C16.4998 14.0512 16.4207 13.8605 16.2801 13.7199C16.1395 13.5793 15.9489 13.5002 15.75 13.5H9.21L7.71 9H3C2.80115 9.0002 2.6105 9.07928 2.46989 9.21989C2.32928 9.3605 2.2502 9.55115 2.25 9.75V14.25H3.75V21H6.75V15.75H8.25V21C8.2496 21.3977 8.09144 21.779 7.81022 22.0602C7.529 22.3414 7.1477 22.4996 6.75 22.5H3.75C3.3523 22.4996 2.971 22.3414 2.68978 22.0602C2.40856 21.779 2.2504 21.3977 2.25 21V15.75C1.8523 15.7496 1.471 15.5914 1.18978 15.3102C0.90856 15.029 0.750397 14.6477 0.75 14.25V9.75C0.750596 9.15345 0.98784 8.5815 1.40967 8.15967C1.8315 7.73784 2.40345 7.5006 3 7.5H7.71C8.02478 7.4998 8.33163 7.59874 8.58701 7.78277C8.84239 7.9668 9.03334 8.22658 9.13275 8.52525L10.29 12H15.75C16.3466 12.0006 16.9185 12.2378 17.3403 12.6597C17.7622 13.0815 17.9994 13.6534 18 14.25V17.25C17.9996 17.6477 17.8414 18.029 17.5602 18.3102C17.279 18.5914 16.8977 18.7496 16.5 18.75V21C16.4996 21.3977 16.3414 21.779 16.0602 22.0602C15.779 22.3414 15.3977 22.4996 15 22.5ZM21 22.5H19.5V14.25H21.75V9.75C21.7498 9.55115 21.6707 9.3605 21.5301 9.21989C21.3895 9.07928 21.1989 9.0002 21 9H18V7.5H21C21.5966 7.5006 22.1685 7.73784 22.5903 8.15967C23.0122 8.5815 23.2494 9.15345 23.25 9.75V14.25C23.2496 14.6477 23.0914 15.029 22.8102 15.3102C22.529 15.5914 22.1477 15.7496 21.75 15.75H21V22.5ZM5.25 6.75C4.65666 6.75 4.07664 6.57405 3.58329 6.24441C3.08994 5.91477 2.70542 5.44623 2.47836 4.89805C2.2513 4.34987 2.19189 3.74667 2.30764 3.16473C2.4234 2.58279 2.70912 2.04824 3.12868 1.62868C3.54824 1.20912 4.08279 0.923401 4.66473 0.807646C5.24667 0.69189 5.84987 0.7513 6.39805 0.978363C6.94623 1.20543 7.41476 1.58994 7.74441 2.08329C8.07405 2.57664 8.25 3.15666 8.25 3.75C8.24901 4.54535 7.93262 5.30783 7.37022 5.87023C6.80783 6.43262 6.04534 6.74901 5.25 6.75ZM5.25 2.25C4.95333 2.25 4.66332 2.33797 4.41664 2.5028C4.16997 2.66762 3.97771 2.90189 3.86418 3.17598C3.75065 3.45007 3.72094 3.75167 3.77882 4.04264C3.8367 4.33361 3.97956 4.60088 4.18934 4.81066C4.39912 5.02044 4.66639 5.1633 4.95736 5.22118C5.24834 5.27906 5.54994 5.24935 5.82403 5.13582C6.09811 5.02229 6.33238 4.83003 6.4972 4.58336C6.66203 4.33668 6.75 4.04667 6.75 3.75C6.7496 3.3523 6.59144 2.971 6.31022 2.68978C6.029 2.40856 5.6477 2.2504 5.25 2.25ZM18.75 6.75C18.1567 6.75 17.5766 6.57405 17.0833 6.24441C16.5899 5.91477 16.2054 5.44623 15.9784 4.89805C15.7513 4.34987 15.6919 3.74667 15.8076 3.16473C15.9234 2.58279 16.2091 2.04824 16.6287 1.62868C17.0482 1.20912 17.5828 0.923401 18.1647 0.807646C18.7467 0.69189 19.3499 0.7513 19.8981 0.978363C20.4462 1.20543 20.9148 1.58994 21.2444 2.08329C21.5741 2.57664 21.75 3.15666 21.75 3.75C21.749 4.54535 21.4326 5.30783 20.8702 5.87023C20.3078 6.43262 19.5453 6.74901 18.75 6.75ZM18.75 2.25C18.4533 2.25 18.1633 2.33797 17.9166 2.5028C17.67 2.66762 17.4777 2.90189 17.3642 3.17598C17.2506 3.45007 17.2209 3.75167 17.2788 4.04264C17.3367 4.33361 17.4796 4.60088 17.6893 4.81066C17.8991 5.02044 18.1664 5.1633 18.4574 5.22118C18.7483 5.27906 19.0499 5.24935 19.324 5.13582C19.5981 5.02229 19.8324 4.83003 19.9972 4.58336C20.162 4.33668 20.25 4.04667 20.25 3.75C20.2496 3.3523 20.0914 2.971 19.8102 2.68978C19.529 2.40856 19.1477 2.2504 18.75 2.25Z" fill="#B7BEBF" stroke="white" stroke-width="0.2" mask="url(#path-1-inside-1_91_2271)"/>
<path d="M13.8751 7.45H13.875C13.6426 7.45 13.4154 7.51891 13.2222 7.64802C13.029 7.77714 12.8784 7.96065 12.7894 8.17535C12.7005 8.39005 12.6772 8.62631 12.7226 8.85423C12.7679 9.08216 12.8798 9.29153 13.0442 9.45585C13.2085 9.62018 13.4178 9.73209 13.6458 9.77742C13.8737 9.82276 14.11 9.79949 14.3247 9.71056C14.5394 9.62163 14.7229 9.47102 14.852 9.2778C14.9811 9.08457 15.05 8.85739 15.05 8.625V8.62493C15.0496 8.31345 14.9257 8.01484 14.7054 7.79459C14.4852 7.57434 14.1866 7.45042 13.8751 7.45ZM13.8749 11.2C13.3657 11.2 12.8678 11.049 12.4444 10.766C12.021 10.4831 11.6909 10.0809 11.496 9.61041C11.3011 9.13989 11.2501 8.62214 11.3495 8.12264C11.4488 7.62314 11.6941 7.16432 12.0542 6.8042C12.4143 6.44408 12.8731 6.19884 13.3726 6.09948C13.8721 6.00012 14.3899 6.05112 14.8604 6.24601C15.3309 6.44091 15.7331 6.77095 16.016 7.19441C16.299 7.61785 16.45 8.11568 16.45 8.62494C16.4492 9.30765 16.1777 9.96218 15.6949 10.4449C15.2122 10.9277 14.5577 11.1992 13.8749 11.2Z" fill="#B7BEBF" stroke="white" stroke-width="0.1"/>
</svg>
