<svg width="12" height="12" viewBox="0 0 12 12" fill="none" xmlns="http://www.w3.org/2000/svg">
<g clip-path="url(#clip0_91_1657)">
<path d="M10.5173 5.84278C10.6286 5.75987 10.7112 5.64419 10.7534 5.51198C10.7957 5.37977 10.7955 5.23765 10.7529 5.10556C10.7103 4.97346 10.6274 4.85801 10.5159 4.77539C10.4043 4.69278 10.2697 4.64713 10.131 4.64487L7.43566 4.54304C7.42241 4.54213 7.4097 4.5374 7.39907 4.52943C7.38845 4.52146 7.38035 4.51059 7.37576 4.49812L6.44438 1.9825C6.39759 1.85451 6.31259 1.744 6.20091 1.66592C6.08922 1.58783 5.95624 1.54596 5.81997 1.54596C5.6837 1.54596 5.55071 1.58783 5.43903 1.66592C5.32734 1.744 5.24235 1.85451 5.19555 1.9825L4.26717 4.50711C4.26258 4.51957 4.25448 4.53045 4.24386 4.53842C4.23323 4.54639 4.22052 4.55111 4.20727 4.55203L1.51196 4.65385C1.37318 4.65612 1.23859 4.70176 1.12707 4.78438C1.01554 4.867 0.932663 4.98245 0.890063 5.11454C0.847462 5.24664 0.84727 5.38876 0.889516 5.52097C0.931761 5.65318 1.01433 5.76885 1.12563 5.85177L3.23995 7.51388C3.25054 7.5222 3.25844 7.53345 3.2627 7.54623C3.26696 7.559 3.26738 7.57274 3.26391 7.58575L2.53618 10.1643C2.49847 10.2956 2.50212 10.4353 2.54664 10.5645C2.59116 10.6936 2.67439 10.8059 2.785 10.8861C2.89561 10.9663 3.02823 11.0104 3.16483 11.0126C3.30143 11.0147 3.43536 10.9747 3.54842 10.898L5.78253 9.4006C5.79354 9.393 5.80659 9.38893 5.81997 9.38893C5.83334 9.38893 5.8464 9.393 5.8574 9.4006L8.09152 10.898C8.20304 10.9773 8.3365 11.0199 8.47335 11.0199C8.61021 11.0199 8.74366 10.9773 8.85519 10.898C8.96583 10.8186 9.04914 10.7068 9.09365 10.5781C9.13816 10.4494 9.14169 10.31 9.10376 10.1792L8.37003 7.59174C8.36615 7.57875 8.36636 7.56488 8.37065 7.55202C8.37494 7.53915 8.38309 7.52793 8.39399 7.51987L10.5173 5.84278Z" fill="white"/>
</g>
<defs>
<clipPath id="clip0_91_1657">
<rect width="10.7812" height="10.7812" fill="white" transform="translate(0.334961 0.817505)"/>
</clipPath>
</defs>
</svg>
