<svg width="20" height="20" viewBox="0 0 20 20" fill="none" xmlns="http://www.w3.org/2000/svg">
<path d="M11.825 11.825L5 15L8.175 8.17499L15 4.99999M10 1.66666C8.90565 1.66666 7.82201 1.8822 6.81097 2.30099C5.79992 2.71978 4.88126 3.33361 4.10744 4.10743C2.54464 5.67024 1.66666 7.78985 1.66666 9.99999C1.66666 12.2101 2.54464 14.3297 4.10744 15.8925C4.88126 16.6664 5.79992 17.2802 6.81097 17.699C7.82201 18.1178 8.90565 18.3333 10 18.3333C12.2101 18.3333 14.3298 17.4553 15.8926 15.8925C17.4554 14.3297 18.3333 12.2101 18.3333 9.99999C18.3333 8.90564 18.1178 7.82201 17.699 6.81096C17.2802 5.79991 16.6664 4.88125 15.8926 4.10743C15.1187 3.33361 14.2001 2.71978 13.189 2.30099C12.178 1.8822 11.0943 1.66666 10 1.66666ZM10 9.08332C9.75688 9.08332 9.52372 9.1799 9.35182 9.35181C9.17991 9.52372 9.08333 9.75687 9.08333 9.99999C9.08333 10.2431 9.17991 10.4763 9.35182 10.6482C9.52372 10.8201 9.75688 10.9167 10 10.9167C10.2431 10.9167 10.4763 10.8201 10.6482 10.6482C10.8201 10.4763 10.9167 10.2431 10.9167 9.99999C10.9167 9.75687 10.8201 9.52372 10.6482 9.35181C10.4763 9.1799 10.2431 9.08332 10 9.08332Z" fill="#D3D3D3"/>
</svg>
