<svg width="24" height="24" viewBox="0 0 24 24" fill="none" xmlns="http://www.w3.org/2000/svg">
<path d="M8.30757 5.7996C8.67688 5.11689 9.22816 4.54988 9.9002 4.1615C10.5723 3.77313 11.3388 3.57859 12.1147 3.59947C12.8906 3.62035 13.6456 3.85584 14.2957 4.27981C14.9459 4.70377 15.4659 5.29961 15.798 6.00119C14.9239 6.02088 14.0745 6.29478 13.3535 6.7894C12.6326 7.28403 12.0713 7.97796 11.7384 8.7864C11.4309 8.27496 11.0631 7.80236 10.6428 7.3788C9.96674 6.71493 9.17542 6.1798 8.30757 5.7996ZM20.3904 10.8C20.3968 10.7008 20.4 10.6008 20.4 10.5C20.4004 9.52494 20.0841 8.57614 19.4986 7.79638C18.9132 7.01663 18.0904 6.44811 17.154 6.17639C16.8305 5.15172 16.2089 4.24677 15.3685 3.57722C14.5281 2.90767 13.5071 2.50393 12.4361 2.41762C11.365 2.33131 10.2926 2.56634 9.35582 3.09268C8.41905 3.61901 7.66051 4.41274 7.17717 5.3724C6.69984 5.22379 6.21369 5.10516 5.72157 5.0172C4.8892 4.86766 4.04485 4.79495 3.19917 4.8L2.97837 4.8072H2.97357C2.82678 4.81577 2.68825 4.87794 2.58428 4.98191C2.48031 5.08588 2.41814 5.22441 2.40957 5.37119V5.3724L2.39997 5.598C2.39431 6.44484 2.46661 7.29041 2.61597 8.124C2.76357 8.9424 3.01317 9.8808 3.43797 10.8H2.99997C2.84084 10.8 2.68822 10.8632 2.5757 10.9757C2.46318 11.0883 2.39997 11.2409 2.39997 11.4V12C2.39997 14.5461 3.41139 16.9879 5.21174 18.7882C7.01209 20.5886 9.45389 21.6 12 21.6C14.546 21.6 16.9878 20.5886 18.7882 18.7882C20.5885 16.9879 21.6 14.5461 21.6 12V11.4C21.6 11.2409 21.5368 11.0883 21.4242 10.9757C21.3117 10.8632 21.1591 10.8 21 10.8H20.3904ZM4.78077 10.8C4.25997 9.8616 3.96237 8.8332 3.79677 7.9104C3.68359 7.28026 3.6186 6.64241 3.60237 6.00239L3.73917 6.0072C4.18557 6.0228 4.80717 6.0708 5.50797 6.19799C6.92397 6.4536 8.58717 7.02 9.79437 8.2272C10.5336 8.9664 11.034 9.8784 11.37 10.8H9.24957L7.02477 8.5752C6.96898 8.51949 6.90277 8.47532 6.82991 8.4452C6.75705 8.41508 6.67898 8.39961 6.60014 8.39966C6.52131 8.39972 6.44325 8.4153 6.37044 8.44552C6.29762 8.47574 6.23147 8.52001 6.17577 8.5758C6.12006 8.63158 6.07589 8.69779 6.04577 8.77065C6.01565 8.84351 6.00018 8.92158 6.00023 9.00042C6.00029 9.07926 6.01587 9.15731 6.04609 9.23013C6.07631 9.30294 6.12058 9.36909 6.17637 9.4248L7.55277 10.8H4.78077ZM12.6384 10.8L12.606 10.7028C12.5799 10.2501 12.6473 9.79684 12.8042 9.37136C12.961 8.94588 13.2039 8.55729 13.5176 8.22984C13.8313 7.90239 14.2091 7.64311 14.6275 7.46818C15.0459 7.29325 15.4958 7.20643 15.9492 7.21312C16.4026 7.21982 16.8498 7.31989 17.2628 7.5071C17.6759 7.69431 18.0459 7.96463 18.3498 8.3012C18.6537 8.63777 18.8849 9.03336 19.0292 9.46328C19.1734 9.89321 19.2274 10.3482 19.188 10.8H12.6384ZM3.59997 12H20.4C20.4 12.834 20.2788 13.6392 20.052 14.4H3.94797C3.71649 13.621 3.59927 12.8126 3.59997 12ZM12 20.4C10.4101 20.4003 8.85276 19.9494 7.50898 19.0998C6.16519 18.2501 5.09014 17.0365 4.40877 15.6H19.5912C18.9098 17.0365 17.8347 18.2501 16.491 19.0998C15.1472 19.9494 13.5898 20.4003 12 20.4Z" fill="#B7BEBF"/>
</svg>
