<svg width="20" height="20" viewBox="0 0 20 20" fill="none" xmlns="http://www.w3.org/2000/svg">
<g clip-path="url(#clip0_91_1571)">
<path fill-rule="evenodd" clip-rule="evenodd" d="M10 1.66666C10.7509 1.66672 11.4797 1.92016 12.0686 2.38596C12.6575 2.85177 13.072 3.50267 13.245 4.23332C14.2051 4.40812 15.0734 4.91422 15.6986 5.66343C16.3239 6.41264 16.6665 7.35748 16.6667 8.33332V15.8333C16.6667 16.4964 16.4033 17.1322 15.9344 17.6011C15.4656 18.0699 14.8297 18.3333 14.1667 18.3333H5.83333C5.17029 18.3333 4.53441 18.0699 4.06557 17.6011C3.59672 17.1322 3.33333 16.4964 3.33333 15.8333V8.33332C3.33322 7.35739 3.67568 6.41239 4.301 5.66311C4.92631 4.91383 5.7948 4.40782 6.755 4.23332C6.92798 3.50267 7.34247 2.85177 7.93138 2.38596C8.52028 1.92016 9.24915 1.66672 10 1.66666ZM12.5 15H7.5V16.6667H12.5V15ZM11.6667 11.6667H8.33333C8.12922 11.6667 7.93222 11.7416 7.77969 11.8773C7.62716 12.0129 7.52971 12.1998 7.50583 12.4025L7.5 12.5V13.3333H12.5V12.5C12.5 12.2959 12.425 12.0989 12.2894 11.9463C12.1538 11.7938 11.9669 11.6964 11.7642 11.6725L11.6667 11.6667ZM10.8333 7.49999H9.16667C8.94565 7.49999 8.73369 7.58779 8.57741 7.74407C8.42113 7.90035 8.33333 8.11231 8.33333 8.33332C8.33333 8.55434 8.42113 8.7663 8.57741 8.92258C8.73369 9.07886 8.94565 9.16666 9.16667 9.16666H10.8333C11.0543 9.16666 11.2663 9.07886 11.4226 8.92258C11.5789 8.7663 11.6667 8.55434 11.6667 8.33332C11.6667 8.11231 11.5789 7.90035 11.4226 7.74407C11.2663 7.58779 11.0543 7.49999 10.8333 7.49999ZM10 3.33332C9.70744 3.33333 9.42005 3.41034 9.16669 3.55662C8.91333 3.7029 8.70294 3.9133 8.55666 4.16666H11.4433C11.2971 3.9133 11.0867 3.7029 10.8333 3.55662C10.58 3.41034 10.2926 3.33333 10 3.33332Z" fill="#D3D3D3"/>
</g>
<defs>
<clipPath id="clip0_91_1571">
<rect width="20" height="20" fill="white"/>
</clipPath>
</defs>
</svg>
