<svg width="24" height="24" viewBox="0 0 24 24" fill="none" xmlns="http://www.w3.org/2000/svg">
<path d="M12 3.75L11.7652 3.96L3.21 12.6097L2.6955 13.1257L3.21075 13.6657L10.3357 20.7907L10.8757 21.306L11.3932 20.7907L20.0407 12.2355L20.25 12V3.75H12ZM12.633 5.25H18.75V11.367L10.875 19.1955L4.8045 13.125L12.633 5.25ZM16.5 6.75C16.3011 6.75 16.1103 6.82902 15.9697 6.96967C15.829 7.11032 15.75 7.30109 15.75 7.5C15.75 7.69891 15.829 7.88968 15.9697 8.03033C16.1103 8.17098 16.3011 8.25 16.5 8.25C16.6989 8.25 16.8897 8.17098 17.0303 8.03033C17.171 7.88968 17.25 7.69891 17.25 7.5C17.25 7.30109 17.171 7.11032 17.0303 6.96967C16.8897 6.82902 16.6989 6.75 16.5 6.75Z" fill="#B7BEBF" stroke="white" stroke-width="0.3"/>
</svg>
