<svg width="18" height="19" viewBox="0 0 18 19" fill="none" xmlns="http://www.w3.org/2000/svg">
<path d="M5.25 7.57812V6.07812H15.75V7.57812H5.25ZM5.25 10.5781V9.07812H15.75V10.5781H5.25ZM5.25 13.5781V12.0781H15.75V13.5781H5.25ZM3 7.57812C2.7875 7.57812 2.6095 7.50612 2.466 7.36212C2.3225 7.21812 2.2505 7.04013 2.25 6.82812C2.2495 6.61612 2.3215 6.43813 2.466 6.29413C2.6105 6.15013 2.7885 6.07812 3 6.07812C3.2115 6.07812 3.38975 6.15013 3.53475 6.29413C3.67975 6.43813 3.7515 6.61612 3.75 6.82812C3.7485 7.04013 3.6765 7.21838 3.534 7.36288C3.3915 7.50738 3.2135 7.57913 3 7.57812ZM3 10.5781C2.7875 10.5781 2.6095 10.5061 2.466 10.3621C2.3225 10.2181 2.2505 10.0401 2.25 9.82812C2.2495 9.61613 2.3215 9.43813 2.466 9.29413C2.6105 9.15013 2.7885 9.07812 3 9.07812C3.2115 9.07812 3.38975 9.15013 3.53475 9.29413C3.67975 9.43813 3.7515 9.61613 3.75 9.82812C3.7485 10.0401 3.6765 10.2184 3.534 10.3629C3.3915 10.5074 3.2135 10.5791 3 10.5781ZM3 13.5781C2.7875 13.5781 2.6095 13.5061 2.466 13.3621C2.3225 13.2181 2.2505 13.0401 2.25 12.8281C2.2495 12.6161 2.3215 12.4381 2.466 12.2941C2.6105 12.1501 2.7885 12.0781 3 12.0781C3.2115 12.0781 3.38975 12.1501 3.53475 12.2941C3.67975 12.4381 3.7515 12.6161 3.75 12.8281C3.7485 13.0401 3.6765 13.2184 3.534 13.3629C3.3915 13.5074 3.2135 13.5791 3 13.5781Z" fill="#7A7A7A"/>
</svg>
