<svg width="20" height="19" viewBox="0 0 20 19" fill="none" xmlns="http://www.w3.org/2000/svg">
<path d="M9.20132 14.2009C7.6043 13.9977 6.14458 13.194 5.11884 11.9532C4.09311 10.7124 3.57833 9.12754 3.67914 7.52081C3.77995 5.91407 4.48879 4.40601 5.66157 3.30313C6.83436 2.20025 8.38309 1.58533 9.99298 1.58333C11.6048 1.58213 13.1565 2.19556 14.3318 3.29862C15.5072 4.40168 16.2177 5.91137 16.3186 7.52007C16.4195 9.12877 15.9033 10.7154 14.8751 11.9567C13.8469 13.1981 12.384 14.0006 10.7847 14.2009V16.625H9.20132V14.2009ZM9.99298 12.6667C11.2528 12.6667 12.4609 12.1662 13.3517 11.2754C14.2425 10.3846 14.743 9.17644 14.743 7.91666C14.743 6.65688 14.2425 5.4487 13.3517 4.55791C12.4609 3.66711 11.2528 3.16666 9.99298 3.16666C8.73321 3.16666 7.52502 3.66711 6.63423 4.55791C5.74343 5.4487 5.24298 6.65688 5.24298 7.91666C5.24298 9.17644 5.74343 10.3846 6.63423 11.2754C7.52502 12.1662 8.73321 12.6667 9.99298 12.6667ZM4.45132 17.4167H15.5346V19H4.45132V17.4167Z" fill="#CED3D4"/>
</svg>
