<svg width="18" height="19" viewBox="0 0 18 19" fill="none" xmlns="http://www.w3.org/2000/svg">
<mask id="mask0_91_2231" style="mask-type:alpha" maskUnits="userSpaceOnUse" x="0" y="1" width="18" height="16">
<path d="M6.18226 6.005L1.39726 6.69875L1.31251 6.716C1.18421 6.75006 1.06725 6.81756 0.973577 6.9116C0.8799 7.00564 0.81286 7.12287 0.779304 7.25129C0.745748 7.37972 0.746878 7.51476 0.782578 7.6426C0.818278 7.77045 0.88727 7.88654 0.982507 7.979L4.44901 11.3532L3.63151 16.1195L3.62176 16.202C3.6139 16.3347 3.64146 16.4671 3.70159 16.5856C3.76173 16.7042 3.8523 16.8046 3.96401 16.8766C4.07572 16.9487 4.20457 16.9897 4.33737 16.9956C4.47016 17.0014 4.60213 16.9719 4.71976 16.91L8.99926 14.66L13.269 16.91L13.344 16.9445C13.4678 16.9933 13.6023 17.0082 13.7338 16.9878C13.8653 16.9674 13.989 16.9124 14.0922 16.8284C14.1954 16.7445 14.2744 16.6346 14.3211 16.51C14.3678 16.3854 14.3806 16.2506 14.358 16.1195L13.5398 11.3532L17.0078 7.97825L17.0663 7.9145C17.1498 7.81157 17.2046 7.68834 17.225 7.55735C17.2455 7.42635 17.2308 7.29228 17.1826 7.1688C17.1343 7.04531 17.0542 6.93682 16.9504 6.85438C16.8465 6.77194 16.7227 6.7185 16.5915 6.6995L11.8065 6.005L9.66751 1.67C9.60561 1.5444 9.5098 1.43864 9.3909 1.36468C9.272 1.29072 9.13478 1.25152 8.99476 1.25152C8.85474 1.25152 8.71751 1.29072 8.59862 1.36468C8.47972 1.43864 8.3839 1.5444 8.32201 1.67L6.18226 6.005Z" fill="#6EBBC8"/>
</mask>
<g mask="url(#mask0_91_2231)">
<path d="M6.18226 6.005L1.39726 6.69875L1.31251 6.716C1.18421 6.75006 1.06725 6.81756 0.973577 6.9116C0.8799 7.00565 0.81286 7.12287 0.779304 7.2513C0.745748 7.37973 0.746878 7.51476 0.782578 7.64261C0.818278 7.77046 0.88727 7.88654 0.982507 7.979L4.44901 11.3533L3.63151 16.1195L3.62176 16.202C3.6139 16.3347 3.64146 16.4671 3.70159 16.5856C3.76173 16.7042 3.8523 16.8046 3.96401 16.8766C4.07572 16.9487 4.20457 16.9897 4.33737 16.9956C4.47016 17.0014 4.60213 16.9719 4.71976 16.91L8.99926 14.66L13.269 16.91L13.344 16.9445C13.4678 16.9933 13.6023 17.0082 13.7338 16.9878C13.8653 16.9674 13.989 16.9124 14.0922 16.8285C14.1954 16.7445 14.2744 16.6346 14.3211 16.51C14.3678 16.3854 14.3806 16.2506 14.358 16.1195L13.5398 11.3533L17.0078 7.97825L17.0663 7.9145C17.1498 7.81158 17.2046 7.68834 17.225 7.55735C17.2455 7.42636 17.2308 7.29229 17.1826 7.1688C17.1343 7.04532 17.0542 6.93683 16.9504 6.85439C16.8465 6.77195 16.7227 6.71851 16.5915 6.6995L11.8065 6.005L9.66751 1.67C9.60561 1.5444 9.5098 1.43864 9.3909 1.36468C9.272 1.29072 9.13478 1.25153 8.99476 1.25153C8.85474 1.25153 8.71751 1.29072 8.59862 1.36468C8.47972 1.43864 8.3839 1.5444 8.32201 1.67L6.18226 6.005Z" fill="#DEDEDE"/>
<rect y="1" width="11.9" height="16" fill="#6EBBC8"/>
</g>
</svg>
