<svg width="10" height="16" viewBox="0 0 10 16" fill="none" xmlns="http://www.w3.org/2000/svg">
<path d="M4.07081 15.75V13.8688C3.2979 13.6938 2.63085 13.3583 2.06969 12.8625C1.50852 12.3667 1.0964 11.6667 0.833313 10.7625L2.45206 10.1062C2.67081 10.8063 2.99544 11.3385 3.42594 11.7031C3.85644 12.0677 4.4214 12.25 5.12081 12.25C5.71873 12.25 6.22565 12.1152 6.64156 11.8457C7.05748 11.5763 7.26515 11.1568 7.26456 10.5875C7.26456 10.0771 7.10415 9.67254 6.78331 9.37388C6.46248 9.07521 5.71873 8.736 4.55206 8.35625C3.2979 7.9625 2.43748 7.49233 1.97081 6.94575C1.50415 6.39917 1.27081 5.73183 1.27081 4.94375C1.27081 3.99583 1.57706 3.25938 2.18956 2.73438C2.80206 2.20937 3.42915 1.91042 4.07081 1.8375V0H5.82081V1.8375C6.54998 1.95417 7.15169 2.22046 7.62594 2.63637C8.10019 3.05229 8.4464 3.55892 8.66456 4.15625L7.04581 4.85625C6.87081 4.38958 6.6229 4.03958 6.30206 3.80625C5.98123 3.57292 5.54373 3.45625 4.98956 3.45625C4.3479 3.45625 3.85935 3.59858 3.52394 3.88325C3.18852 4.16792 3.02081 4.52142 3.02081 4.94375C3.02081 5.425 3.23956 5.80417 3.67706 6.08125C4.11456 6.35833 4.8729 6.65 5.95206 6.95625C6.95831 7.24792 7.72044 7.71108 8.23844 8.34575C8.75644 8.98042 9.01515 9.71308 9.01456 10.5437C9.01456 11.5792 8.70831 12.3667 8.09581 12.9062C7.48331 13.4458 6.72498 13.7812 5.82081 13.9125V15.75H4.07081Z" fill="#F18E8E"/>
</svg>
