<svg width="18" height="15" viewBox="0 0 18 15" fill="none" xmlns="http://www.w3.org/2000/svg">
<path d="M14.5625 9.375C13.9811 9.37582 13.4142 9.55645 12.9395 9.89213C12.4648 10.2278 12.1055 10.7021 11.9109 11.25H4.5625C3.98234 11.25 3.42594 11.0195 3.0157 10.6093C2.60547 10.1991 2.375 9.64266 2.375 9.0625C2.375 8.48234 2.60547 7.92594 3.0157 7.5157C3.42594 7.10547 3.98234 6.875 4.5625 6.875H12.0625C12.9742 6.875 13.8485 6.51284 14.4932 5.86818C15.1378 5.22352 15.5 4.34918 15.5 3.4375C15.5 2.52582 15.1378 1.65148 14.4932 1.00682C13.8485 0.362164 12.9742 0 12.0625 0H4.5625C4.31386 5.23971e-09 4.0754 0.0987719 3.89959 0.274587C3.72377 0.450403 3.625 0.68886 3.625 0.9375C3.625 1.18614 3.72377 1.4246 3.89959 1.60041C4.0754 1.77623 4.31386 1.875 4.5625 1.875H12.0625C12.4769 1.875 12.8743 2.03962 13.1674 2.33265C13.4604 2.62567 13.625 3.0231 13.625 3.4375C13.625 3.8519 13.4604 4.24933 13.1674 4.54235C12.8743 4.83538 12.4769 5 12.0625 5H4.5625C3.48506 5 2.45175 5.42801 1.68988 6.18988C0.928012 6.95175 0.5 7.98506 0.5 9.0625C0.5 10.1399 0.928012 11.1733 1.68988 11.9351C2.45175 12.697 3.48506 13.125 4.5625 13.125H11.9109C12.0828 13.6111 12.385 14.0407 12.7845 14.3666C13.184 14.6926 13.6655 14.9025 14.1762 14.9733C14.6869 15.0442 15.2073 14.9732 15.6805 14.7683C16.1536 14.5633 16.5613 14.2323 16.859 13.8113C17.1567 13.3903 17.3329 12.8955 17.3684 12.3811C17.4039 11.8667 17.2973 11.3524 17.0603 10.8945C16.8232 10.4366 16.4649 10.0527 16.0243 9.78471C15.5838 9.51672 15.0781 9.37498 14.5625 9.375ZM14.5625 13.125C14.3771 13.125 14.1958 13.07 14.0417 12.967C13.8875 12.864 13.7673 12.7176 13.6964 12.5463C13.6254 12.375 13.6068 12.1865 13.643 12.0046C13.6792 11.8227 13.7685 11.6557 13.8996 11.5246C14.0307 11.3935 14.1977 11.3042 14.3796 11.268C14.5615 11.2318 14.75 11.2504 14.9213 11.3214C15.0926 11.3923 15.239 11.5125 15.342 11.6667C15.445 11.8208 15.5 12.0021 15.5 12.1875C15.5 12.4361 15.4012 12.6746 15.2254 12.8504C15.0496 13.0262 14.8111 13.125 14.5625 13.125Z" fill="#F18E8E"/>
</svg>
